<mxfile host="65bd71144e">
    <diagram id="7y4WtiPqoED0MTe5usec" name="Page-1">
        <mxGraphModel dx="574" dy="427" grid="0" gridSize="10" guides="1" tooltips="1" connect="1" arrows="1" fold="1" page="1" pageScale="1" pageWidth="850" pageHeight="1100" math="0" shadow="0">
            <root>
                <mxCell id="0"/>
                <mxCell id="1" parent="0"/>
                <mxCell id="3" value="Elf" style="swimlane;" parent="1" vertex="1">
                    <mxGeometry x="479" y="169" width="110" height="100" as="geometry"/>
                </mxCell>
                <mxCell id="25" value="" style="endArrow=none;html=1;fontSize=6;" parent="3" edge="1">
                    <mxGeometry width="50" height="50" relative="1" as="geometry">
                        <mxPoint y="59.99999999999994" as="sourcePoint"/>
                        <mxPoint x="110" y="59.99999999999994" as="targetPoint"/>
                    </mxGeometry>
                </mxCell>
                <mxCell id="4" value="Wizard" style="swimlane;" parent="1" vertex="1">
                    <mxGeometry x="339" y="169" width="110" height="100" as="geometry"/>
                </mxCell>
                <mxCell id="22" value="" style="endArrow=none;html=1;fontSize=6;" parent="4" edge="1">
                    <mxGeometry width="50" height="50" relative="1" as="geometry">
                        <mxPoint y="60" as="sourcePoint"/>
                        <mxPoint x="110" y="60" as="targetPoint"/>
                    </mxGeometry>
                </mxCell>
                <mxCell id="88" value="+ HasSpellBook : bool&#10;+ WizardSpellBook : SpellBook" style="text;strokeColor=none;fillColor=none;align=left;verticalAlign=middle;spacingLeft=4;spacingRight=4;overflow=hidden;points=[[0,0.5],[1,0.5]];portConstraint=eastwest;rotatable=0;fontSize=6;" parent="4" vertex="1">
                    <mxGeometry y="24" width="110" height="36" as="geometry"/>
                </mxCell>
                <mxCell id="144" value="+ AddSpellBook(SpellBook)&#10;+ AddSpell(Spell)" style="text;strokeColor=none;fillColor=none;align=left;verticalAlign=middle;spacingLeft=4;spacingRight=4;overflow=hidden;points=[[0,0.5],[1,0.5]];portConstraint=eastwest;rotatable=0;fontSize=6;" parent="4" vertex="1">
                    <mxGeometry y="60" width="110" height="39" as="geometry"/>
                </mxCell>
                <mxCell id="5" value="Dwarf" style="swimlane;" parent="1" vertex="1">
                    <mxGeometry x="619" y="169" width="110" height="100" as="geometry"/>
                </mxCell>
                <mxCell id="31" value="" style="endArrow=none;html=1;fontSize=6;" parent="5" edge="1">
                    <mxGeometry width="50" height="50" relative="1" as="geometry">
                        <mxPoint y="59.99999999999994" as="sourcePoint"/>
                        <mxPoint x="110" y="59.99999999999994" as="targetPoint"/>
                    </mxGeometry>
                </mxCell>
                <mxCell id="60" style="edgeStyle=none;html=1;fontSize=6;startArrow=none;endArrow=block;endFill=0;entryX=0;entryY=1;entryDx=0;entryDy=0;exitX=1;exitY=0;exitDx=0;exitDy=0;" parent="1" source="39" target="119" edge="1">
                    <mxGeometry relative="1" as="geometry">
                        <mxPoint x="258.6669460598987" y="711.6727139232099" as="sourcePoint"/>
                    </mxGeometry>
                </mxCell>
                <mxCell id="6" value="Inventory" style="swimlane;" parent="1" vertex="1">
                    <mxGeometry x="476.43" y="509" width="110" height="100" as="geometry">
                        <mxRectangle x="190" y="250" width="81" height="23" as="alternateBounds"/>
                    </mxGeometry>
                </mxCell>
                <mxCell id="34" value="" style="endArrow=none;html=1;fontSize=6;" parent="6" edge="1">
                    <mxGeometry width="50" height="50" relative="1" as="geometry">
                        <mxPoint y="59.99999999999994" as="sourcePoint"/>
                        <mxPoint x="110" y="59.99999999999994" as="targetPoint"/>
                    </mxGeometry>
                </mxCell>
                <mxCell id="90" value="+ Items : ArrayList&#10;+ ItemQuantity : int&#10;+ MaxItems : int" style="text;strokeColor=none;fillColor=none;align=left;verticalAlign=middle;spacingLeft=4;spacingRight=4;overflow=hidden;points=[[0,0.5],[1,0.5]];portConstraint=eastwest;rotatable=0;fontSize=5;" parent="6" vertex="1">
                    <mxGeometry y="24" width="110" height="37" as="geometry"/>
                </mxCell>
                <mxCell id="8" value="" style="endArrow=classic;html=1;exitX=0.5;exitY=1;exitDx=0;exitDy=0;startArrow=diamondThin;startFill=0;startSize=10;" parent="1" source="82" target="6" edge="1">
                    <mxGeometry width="50" height="50" relative="1" as="geometry">
                        <mxPoint x="433.5" y="460.56217782649105" as="sourcePoint"/>
                        <mxPoint x="423" y="557.0000000000001" as="targetPoint"/>
                    </mxGeometry>
                </mxCell>
                <mxCell id="146" value="1 .. 1" style="edgeLabel;html=1;align=center;verticalAlign=middle;resizable=0;points=[];" vertex="1" connectable="0" parent="8">
                    <mxGeometry x="0.3253" y="1" relative="1" as="geometry">
                        <mxPoint x="-7" y="-29" as="offset"/>
                    </mxGeometry>
                </mxCell>
                <mxCell id="39" value="Weapon" style="swimlane;" parent="1" vertex="1">
                    <mxGeometry x="147" y="722" width="110" height="100" as="geometry">
                        <mxRectangle x="190" y="250" width="81" height="23" as="alternateBounds"/>
                    </mxGeometry>
                </mxCell>
                <mxCell id="42" value="" style="endArrow=none;html=1;fontSize=6;" parent="39" edge="1">
                    <mxGeometry width="50" height="50" relative="1" as="geometry">
                        <mxPoint y="59.99999999999994" as="sourcePoint"/>
                        <mxPoint x="110" y="59.99999999999994" as="targetPoint"/>
                    </mxGeometry>
                </mxCell>
                <mxCell id="43" value="Armor" style="swimlane;" parent="1" vertex="1">
                    <mxGeometry x="126" y="581" width="110" height="100" as="geometry">
                        <mxRectangle x="190" y="250" width="81" height="23" as="alternateBounds"/>
                    </mxGeometry>
                </mxCell>
                <mxCell id="45" value="" style="endArrow=none;html=1;fontSize=6;" parent="43" edge="1">
                    <mxGeometry width="50" height="50" relative="1" as="geometry">
                        <mxPoint y="59.99999999999994" as="sourcePoint"/>
                        <mxPoint x="110" y="59.99999999999994" as="targetPoint"/>
                    </mxGeometry>
                </mxCell>
                <mxCell id="46" value="Miscellaneous" style="swimlane;" parent="1" vertex="1">
                    <mxGeometry x="307" y="716" width="110" height="100" as="geometry">
                        <mxRectangle x="190" y="250" width="81" height="23" as="alternateBounds"/>
                    </mxGeometry>
                </mxCell>
                <mxCell id="48" value="" style="endArrow=none;html=1;fontSize=6;" parent="46" edge="1">
                    <mxGeometry width="50" height="50" relative="1" as="geometry">
                        <mxPoint y="59.99999999999994" as="sourcePoint"/>
                        <mxPoint x="110" y="59.99999999999994" as="targetPoint"/>
                    </mxGeometry>
                </mxCell>
                <mxCell id="63" style="edgeStyle=none;html=1;entryX=0.5;entryY=0;entryDx=0;entryDy=0;fontSize=6;startArrow=diamondThin;startFill=0;exitX=0.75;exitY=1;exitDx=0;exitDy=0;startSize=10;" parent="1" source="49" target="55" edge="1">
                    <mxGeometry relative="1" as="geometry">
                        <mxPoint x="166.81506233423602" y="304.273072131478" as="sourcePoint"/>
                    </mxGeometry>
                </mxCell>
                <mxCell id="148" value="&lt;font style=&quot;font-size: 11px&quot;&gt;0 .. *&lt;/font&gt;" style="edgeLabel;html=1;align=center;verticalAlign=middle;resizable=0;points=[];fontSize=5;" vertex="1" connectable="0" parent="63">
                    <mxGeometry x="-0.3459" relative="1" as="geometry">
                        <mxPoint x="15" y="-6" as="offset"/>
                    </mxGeometry>
                </mxCell>
                <mxCell id="49" value="SpellBook" style="swimlane;" parent="1" vertex="1">
                    <mxGeometry x="89" y="191" width="110" height="100" as="geometry">
                        <mxRectangle x="190" y="250" width="81" height="23" as="alternateBounds"/>
                    </mxGeometry>
                </mxCell>
                <mxCell id="51" value="" style="endArrow=none;html=1;fontSize=6;" parent="49" edge="1">
                    <mxGeometry width="50" height="50" relative="1" as="geometry">
                        <mxPoint y="59.99999999999994" as="sourcePoint"/>
                        <mxPoint x="110" y="59.99999999999994" as="targetPoint"/>
                    </mxGeometry>
                </mxCell>
                <mxCell id="145" value="+ Spells : List&lt;Spell&gt;" style="text;strokeColor=none;fillColor=none;align=left;verticalAlign=middle;spacingLeft=4;spacingRight=4;overflow=hidden;points=[[0,0.5],[1,0.5]];portConstraint=eastwest;rotatable=0;fontSize=6;" parent="49" vertex="1">
                    <mxGeometry y="23.5" width="110" height="36" as="geometry"/>
                </mxCell>
                <mxCell id="55" value="Spell" style="swimlane;" parent="1" vertex="1">
                    <mxGeometry x="125" y="340" width="110" height="100" as="geometry">
                        <mxRectangle x="190" y="250" width="81" height="23" as="alternateBounds"/>
                    </mxGeometry>
                </mxCell>
                <mxCell id="57" value="" style="endArrow=none;html=1;fontSize=6;" parent="55" edge="1">
                    <mxGeometry width="50" height="50" relative="1" as="geometry">
                        <mxPoint y="59.99999999999994" as="sourcePoint"/>
                        <mxPoint x="110" y="59.99999999999994" as="targetPoint"/>
                    </mxGeometry>
                </mxCell>
                <mxCell id="92" value="+ Name : string&#10;+ Damage: int&#10;+ Defense : int&#10;+ TotalHealthPoints : int&#10;+ MagicPower : int" style="text;strokeColor=none;fillColor=none;align=left;verticalAlign=middle;spacingLeft=4;spacingRight=4;overflow=hidden;points=[[0,0.5],[1,0.5]];portConstraint=eastwest;rotatable=0;fontSize=5;" parent="55" vertex="1">
                    <mxGeometry y="24" width="110" height="37" as="geometry"/>
                </mxCell>
                <mxCell id="73" value="" style="edgeStyle=none;html=1;fontSize=6;endArrow=none;" parent="1" edge="1">
                    <mxGeometry relative="1" as="geometry">
                        <mxPoint x="475.99658092931116" y="557.4027235577353" as="targetPoint"/>
                        <mxPoint x="476.4300000000001" y="557.2972972972975" as="sourcePoint"/>
                    </mxGeometry>
                </mxCell>
                <mxCell id="78" value="" style="edgeStyle=none;html=1;fontSize=6;endArrow=none;" parent="1" source="6" edge="1">
                    <mxGeometry relative="1" as="geometry">
                        <mxPoint x="538.9771698113208" y="609" as="sourcePoint"/>
                        <mxPoint x="540.2112438189276" y="608.6140275769412" as="targetPoint"/>
                    </mxGeometry>
                </mxCell>
                <mxCell id="80" value="" style="edgeStyle=none;html=1;fontSize=6;endArrow=none;" parent="1" source="6" edge="1">
                    <mxGeometry relative="1" as="geometry">
                        <mxPoint x="587.2147993979836" y="574.1734654362515" as="targetPoint"/>
                        <mxPoint x="586.4300000000001" y="574.4906771344456" as="sourcePoint"/>
                    </mxGeometry>
                </mxCell>
                <mxCell id="82" value="Character" style="swimlane;" parent="1" vertex="1">
                    <mxGeometry x="382" y="350" width="110" height="100" as="geometry"/>
                </mxCell>
                <mxCell id="83" value="+ Name : string&#10;+ Damage: int&#10;+ Defense : int&#10;+ TotalHealthPoints : int&#10;+ HealthPoints : int&#10;+ MagicPower : int&#10;+ HealingPotions : int&#10;+ CharacterInventory : Inventory" style="text;strokeColor=none;fillColor=none;align=left;verticalAlign=middle;spacingLeft=4;spacingRight=4;overflow=hidden;points=[[0,0.5],[1,0.5]];portConstraint=eastwest;rotatable=0;fontSize=3;" parent="82" vertex="1">
                    <mxGeometry y="23" width="110" height="37" as="geometry"/>
                </mxCell>
                <mxCell id="84" value="+ Attack(Character)&#10;+ Heal(Character)&#10;+ AddItem(Item)&#10;+ RemoveItem(Item)" style="text;strokeColor=none;fillColor=none;align=left;verticalAlign=middle;spacingLeft=4;spacingRight=4;overflow=hidden;points=[[0,0.5],[1,0.5]];portConstraint=eastwest;rotatable=0;fontSize=6;" parent="82" vertex="1">
                    <mxGeometry y="60" width="110" height="40" as="geometry"/>
                </mxCell>
                <mxCell id="85" value="" style="endArrow=none;html=1;fontSize=6;" parent="82" edge="1">
                    <mxGeometry width="50" height="50" relative="1" as="geometry">
                        <mxPoint y="60" as="sourcePoint"/>
                        <mxPoint x="110" y="60" as="targetPoint"/>
                    </mxGeometry>
                </mxCell>
                <mxCell id="103" value="" style="endArrow=classic;html=1;entryX=1;entryY=0.5;entryDx=0;entryDy=0;exitX=0;exitY=0.5;exitDx=0;exitDy=0;startArrow=diamondThin;startFill=0;startSize=10;" parent="1" source="88" edge="1">
                    <mxGeometry width="50" height="50" relative="1" as="geometry">
                        <mxPoint x="325.02663711335776" y="219.6100901992337" as="sourcePoint"/>
                        <mxPoint x="199" y="231.5" as="targetPoint"/>
                    </mxGeometry>
                </mxCell>
                <mxCell id="149" value="0 .. 1" style="edgeLabel;html=1;align=center;verticalAlign=middle;resizable=0;points=[];fontSize=11;" vertex="1" connectable="0" parent="103">
                    <mxGeometry x="-0.4695" y="-1" relative="1" as="geometry">
                        <mxPoint x="16" y="11" as="offset"/>
                    </mxGeometry>
                </mxCell>
                <mxCell id="119" value="Item" style="swimlane;" parent="1" vertex="1">
                    <mxGeometry x="283" y="555" width="110" height="100" as="geometry">
                        <mxRectangle x="190" y="250" width="81" height="23" as="alternateBounds"/>
                    </mxGeometry>
                </mxCell>
                <mxCell id="120" value="" style="endArrow=none;html=1;fontSize=6;" parent="119" edge="1">
                    <mxGeometry width="50" height="50" relative="1" as="geometry">
                        <mxPoint y="59.99999999999994" as="sourcePoint"/>
                        <mxPoint x="110" y="59.99999999999994" as="targetPoint"/>
                    </mxGeometry>
                </mxCell>
                <mxCell id="121" value="+ Name : string&#10;+ Damage: int&#10;+ Defense : int&#10;+ TotalHealthPoints : int&#10;+ MagicPower : int" style="text;strokeColor=none;fillColor=none;align=left;verticalAlign=middle;spacingLeft=4;spacingRight=4;overflow=hidden;points=[[0,0.5],[1,0.5]];portConstraint=eastwest;rotatable=0;fontSize=5;" parent="119" vertex="1">
                    <mxGeometry y="23" width="110" height="37" as="geometry"/>
                </mxCell>
                <mxCell id="122" value="" style="endArrow=classic;html=1;entryX=1.01;entryY=0.815;entryDx=0;entryDy=0;entryPerimeter=0;exitX=-0.009;exitY=0.963;exitDx=0;exitDy=0;startArrow=diamondThin;startFill=0;startSize=10;exitPerimeter=0;" parent="1" source="90" target="121" edge="1">
                    <mxGeometry width="50" height="50" relative="1" as="geometry">
                        <mxPoint x="462.8521516544988" y="570.8941410032796" as="sourcePoint"/>
                        <mxPoint x="455.9979405772579" y="637.44" as="targetPoint"/>
                    </mxGeometry>
                </mxCell>
                <mxCell id="147" value="&lt;font style=&quot;font-size: 5px&quot;&gt;0 .. MaxItems&lt;/font&gt;" style="edgeLabel;html=1;align=center;verticalAlign=middle;resizable=0;points=[];" vertex="1" connectable="0" parent="122">
                    <mxGeometry x="0.2516" y="-1" relative="1" as="geometry">
                        <mxPoint x="25" y="-30" as="offset"/>
                    </mxGeometry>
                </mxCell>
                <mxCell id="127" style="edgeStyle=none;html=1;fontSize=6;startArrow=none;endArrow=block;endFill=0;entryX=0.5;entryY=1;entryDx=0;entryDy=0;exitX=0.25;exitY=0;exitDx=0;exitDy=0;" parent="1" source="46" target="119" edge="1">
                    <mxGeometry relative="1" as="geometry">
                        <mxPoint x="318.60585899672026" y="702.9221516544986" as="sourcePoint"/>
                        <mxPoint x="312" y="659" as="targetPoint"/>
                    </mxGeometry>
                </mxCell>
                <mxCell id="129" style="edgeStyle=none;html=1;fontSize=6;startArrow=none;endArrow=block;endFill=0;entryX=0.009;entryY=1.009;entryDx=0;entryDy=0;entryPerimeter=0;exitX=1;exitY=0.5;exitDx=0;exitDy=0;" parent="1" source="43" target="121" edge="1">
                    <mxGeometry relative="1" as="geometry">
                        <mxPoint x="248.76148078402355" y="633.6882666842824" as="sourcePoint"/>
                        <mxPoint x="273.33" y="607" as="targetPoint"/>
                    </mxGeometry>
                </mxCell>
                <mxCell id="131" style="edgeStyle=none;html=1;fontSize=6;startArrow=none;endArrow=block;endFill=0;entryX=0.25;entryY=0;entryDx=0;entryDy=0;exitX=0.5;exitY=1;exitDx=0;exitDy=0;" parent="1" source="4" target="82" edge="1">
                    <mxGeometry relative="1" as="geometry">
                        <mxPoint x="380.6100901992336" y="283.47336288664224" as="sourcePoint"/>
                        <mxPoint x="393" y="286.64300000000003" as="targetPoint"/>
                    </mxGeometry>
                </mxCell>
                <mxCell id="132" style="edgeStyle=none;html=1;fontSize=6;startArrow=none;endArrow=block;endFill=0;entryX=1;entryY=0;entryDx=0;entryDy=0;exitX=0.5;exitY=1;exitDx=0;exitDy=0;" parent="1" source="3" target="82" edge="1">
                    <mxGeometry relative="1" as="geometry">
                        <mxPoint x="520.7136990604988" y="282.68063315001257" as="sourcePoint"/>
                        <mxPoint x="527.61" y="350" as="targetPoint"/>
                    </mxGeometry>
                </mxCell>
                <mxCell id="135" style="edgeStyle=none;html=1;fontSize=6;startArrow=none;endArrow=block;endFill=0;entryX=0.998;entryY=0.2;entryDx=0;entryDy=0;exitX=0.5;exitY=1;exitDx=0;exitDy=0;entryPerimeter=0;" parent="1" source="5" target="83" edge="1">
                    <mxGeometry relative="1" as="geometry">
                        <mxPoint x="651.0502525316942" y="278.4497474683059" as="sourcePoint"/>
                        <mxPoint x="624" y="347" as="targetPoint"/>
                    </mxGeometry>
                </mxCell>
                <mxCell id="137" value="ISpecialAbility" style="swimlane;" parent="1" vertex="1">
                    <mxGeometry x="481" y="12" width="110" height="100" as="geometry"/>
                </mxCell>
                <mxCell id="138" value="+ SpecialAbility(Character)" style="text;strokeColor=none;fillColor=none;align=left;verticalAlign=middle;spacingLeft=4;spacingRight=4;overflow=hidden;points=[[0,0.5],[1,0.5]];portConstraint=eastwest;rotatable=0;fontSize=6;" parent="137" vertex="1">
                    <mxGeometry y="60" width="110" height="40" as="geometry"/>
                </mxCell>
                <mxCell id="139" value="" style="endArrow=none;html=1;fontSize=6;" parent="137" edge="1">
                    <mxGeometry width="50" height="50" relative="1" as="geometry">
                        <mxPoint y="60" as="sourcePoint"/>
                        <mxPoint x="110" y="60" as="targetPoint"/>
                    </mxGeometry>
                </mxCell>
                <mxCell id="141" style="edgeStyle=none;html=1;fontSize=6;startArrow=none;endArrow=block;endFill=0;entryX=0;entryY=0.5;entryDx=0;entryDy=0;dashed=1;" parent="1" source="4" target="138" edge="1">
                    <mxGeometry relative="1" as="geometry">
                        <mxPoint x="421.7136990604988" y="76.00063315001256" as="sourcePoint"/>
                        <mxPoint x="393.0000000000001" y="143.32" as="targetPoint"/>
                    </mxGeometry>
                </mxCell>
                <mxCell id="142" style="edgeStyle=none;html=1;fontSize=6;startArrow=none;endArrow=block;endFill=0;entryX=0.448;entryY=1;entryDx=0;entryDy=0;entryPerimeter=0;dashed=1;exitX=0.5;exitY=0;exitDx=0;exitDy=0;" parent="1" source="3" target="138" edge="1">
                    <mxGeometry relative="1" as="geometry">
                        <mxPoint x="433.4824972436604" y="179" as="sourcePoint"/>
                        <mxPoint x="489.57000000000005" y="83.88000000000005" as="targetPoint"/>
                    </mxGeometry>
                </mxCell>
                <mxCell id="143" style="edgeStyle=none;html=1;fontSize=6;startArrow=none;endArrow=block;endFill=0;entryX=1;entryY=0.5;entryDx=0;entryDy=0;dashed=1;exitX=0.5;exitY=0;exitDx=0;exitDy=0;" parent="1" source="5" target="138" edge="1">
                    <mxGeometry relative="1" as="geometry">
                        <mxPoint x="670.72" y="155" as="sourcePoint"/>
                        <mxPoint x="667" y="98" as="targetPoint"/>
                    </mxGeometry>
                </mxCell>
            </root>
        </mxGraphModel>
    </diagram>
</mxfile>